<?xml version="1.0" encoding="UTF-8" standalone="no"?>
<!DOCTYPE svg PUBLIC "-//W3C//DTD SVG 1.0//EN" "http://www.w3.org/TR/2001/PR-SVG-20010719/DTD/svg10.dtd">
<svg width="44cm" height="29cm" viewBox="24 -153 871 574" xmlns="http://www.w3.org/2000/svg" xmlns:xlink="http://www.w3.org/1999/xlink">
  <g>
    <ellipse style="fill: #ffffff" cx="64.25" cy="105" rx="39.25" ry="18"/>
    <ellipse style="fill: none; fill-opacity:0; stroke-width: 2; stroke: #000000" cx="64.25" cy="105" rx="39.25" ry="18"/>
    <text font-size="12.7998" style="fill: #000000;text-anchor:middle;font-family:monospace;font-style:normal;font-weight:normal" x="64.25" y="109">nazwa</text>
  </g>
  <g>
    <ellipse style="fill: #ffffff" cx="65.55" cy="167" rx="31.55" ry="18"/>
    <ellipse style="fill: none; fill-opacity:0; stroke-width: 2; stroke: #000000" cx="65.55" cy="167" rx="31.55" ry="18"/>
    <text font-size="12.8" style="fill: #000000;text-anchor:middle;font-family:monospace;font-style:normal;font-weight:normal" x="65.55" y="171">kod</text>
    <line style="fill: none; fill-opacity:0; stroke-width: 2; stroke: #000000" x1="54" y1="175" x2="77.1" y2="175"/>
  </g>
  <g>
    <ellipse style="fill: #ffffff" cx="174.1" cy="248" rx="43.1" ry="18"/>
    <ellipse style="fill: none; fill-opacity:0; stroke-width: 2; stroke: #000000" cx="174.1" cy="248" rx="43.1" ry="18"/>
    <text font-size="12.7998" style="fill: #000000;text-anchor:middle;font-family:monospace;font-style:normal;font-weight:normal" x="174.1" y="252">rodzaj</text>
  </g>
  <g>
    <ellipse style="fill: #ffffff" cx="230.05" cy="34" rx="70.05" ry="18"/>
    <ellipse style="fill: none; fill-opacity:0; stroke-width: 2; stroke: #000000" cx="230.05" cy="34" rx="70.05" ry="18"/>
    <text font-size="12.7998" style="fill: #000000;text-anchor:middle;font-family:monospace;font-style:normal;font-weight:normal" x="230.05" y="38">liczba godzin</text>
  </g>
  <g>
    <rect style="fill: #ffffff" x="293" y="96" width="97.3" height="36"/>
    <rect style="fill: none; fill-opacity:0; stroke-width: 2; stroke: #000000" x="293" y="96" width="97.3" height="36"/>
    <text font-size="12.7998" style="fill: #000000;text-anchor:middle;font-family:monospace;font-style:normal;font-weight:normal" x="341.65" y="118">Przedmiot</text>
  </g>
  <line style="fill: none; fill-opacity:0; stroke-width: 2; stroke: #000000" x1="254.497" y1="51.5244" x2="315.153" y2="95.0059"/>
  <line style="fill: none; fill-opacity:0; stroke-width: 2; stroke: #000000" x1="104.377" y1="106.302" x2="291.999" y2="112.389"/>
  <line style="fill: none; fill-opacity:0; stroke-width: 2; stroke: #000000" x1="96.4309" y1="161.072" x2="291.996" y2="123.532"/>
  <line style="fill: none; fill-opacity:0; stroke-width: 2; stroke: #000000" x1="194.819" y1="231.43" x2="317.904" y2="132.991"/>
  <g>
    <polygon style="fill: #ffffff" points="293,331.48 343.8,301 394.6,331.48 343.8,361.96 "/>
    <polygon style="fill: none; fill-opacity:0; stroke-width: 2; stroke: #000000" points="293,331.48 343.8,301 394.6,331.48 343.8,361.96 "/>
    <text font-size="12.7998" style="fill: #000000;text-anchor:end;font-family:monospace;font-style:normal;font-weight:normal" x="287" y="325.48"/>
    <text font-size="12.7998" style="fill: #000000;text-anchor:start;font-family:monospace;font-style:normal;font-weight:normal" x="400.6" y="325.48"/>
    <text font-size="12.7998" style="fill: #000000;text-anchor:middle;font-family:monospace;font-style:normal;font-weight:normal" x="343.8" y="335.48">prowadzi</text>
  </g>
  <g>
    <rect style="fill: #ffffff" x="533" y="312" width="105" height="36"/>
    <rect style="fill: none; fill-opacity:0; stroke-width: 2; stroke: #000000" x="533" y="312" width="105" height="36"/>
    <text font-size="12.7998" style="fill: #000000;text-anchor:middle;font-family:monospace;font-style:normal;font-weight:normal" x="585.5" y="334">nauczyciel</text>
  </g>
  <g>
    <rect style="fill: #ffffff" x="602" y="99" width="81.9" height="36"/>
    <rect style="fill: none; fill-opacity:0; stroke-width: 2; stroke: #000000" x="602" y="99" width="81.9" height="36"/>
    <text font-size="12.7998" style="fill: #000000;text-anchor:middle;font-family:monospace;font-style:normal;font-weight:normal" x="642.95" y="121">student</text>
  </g>
  <g>
    <polygon style="fill: #ffffff" points="457,116.17 503.95,88 550.9,116.17 503.95,144.34 "/>
    <polygon style="fill: none; fill-opacity:0; stroke-width: 2; stroke: #000000" points="457,116.17 503.95,88 550.9,116.17 503.95,144.34 "/>
    <text font-size="12.7998" style="fill: #000000;text-anchor:end;font-family:monospace;font-style:normal;font-weight:normal" x="451" y="110.17"/>
    <text font-size="12.7998" style="fill: #000000;text-anchor:start;font-family:monospace;font-style:normal;font-weight:normal" x="556.9" y="110.17"/>
    <text font-size="12.7998" style="fill: #000000;text-anchor:middle;font-family:monospace;font-style:normal;font-weight:normal" x="503.95" y="120.17">zalicza</text>
  </g>
  <g>
    <line style="fill: none; fill-opacity:0; stroke-width: 2; stroke: #000000" x1="600.997" y1="116.749" x2="551.884" y2="116.456"/>
    <line style="fill: none; fill-opacity:0; stroke-width: 2; stroke: #000000" x1="590.997" y1="116.69" x2="600.967" y2="121.749"/>
    <line style="fill: none; fill-opacity:0; stroke-width: 2; stroke: #000000" x1="590.997" y1="116.69" x2="601.027" y2="111.75"/>
    <path style="fill: none; fill-opacity:0; stroke-width: 2; stroke: #000000" d="M 588.497 116.675 C 588.482,119.175 587.218,121.667 585.968,121.66 C 584.718,121.652 583.483,119.145 583.497,116.645 C 583.512,114.145 584.777,111.653 586.027,111.66 C 587.277,111.667 588.512,114.175 588.497,116.675"/>
  </g>
  <g>
    <line style="fill: none; fill-opacity:0; stroke-width: 2; stroke: #000000" x1="390.3" y1="114" x2="457" y2="116.17"/>
    <line style="fill: none; fill-opacity:0; stroke-width: 2; stroke: #000000" x1="400.295" y1="114.325" x2="390.463" y2="109.003"/>
    <line style="fill: none; fill-opacity:0; stroke-width: 2; stroke: #000000" x1="400.295" y1="114.325" x2="390.137" y2="118.997"/>
    <path style="fill: none; fill-opacity:0; stroke-width: 2; stroke: #000000" d="M 402.793 114.406 C 402.875,111.908 404.205,109.45 405.455,109.49 C 406.704,109.531 407.872,112.07 407.791,114.569 C 407.709,117.068 406.379,119.526 405.129,119.485 C 403.88,119.444 402.712,116.905 402.793,114.406"/>
  </g>
  <g>
    <ellipse style="fill: #ffffff" cx="642.5" cy="43" rx="58.5" ry="18"/>
    <ellipse style="fill: none; fill-opacity:0; stroke-width: 2; stroke: #000000" cx="642.5" cy="43" rx="58.5" ry="18"/>
    <text font-size="12.7998" style="fill: #000000;text-anchor:middle;font-family:monospace;font-style:normal;font-weight:normal" x="642.5" y="47">nr indeksu</text>
    <line style="fill: none; fill-opacity:0; stroke-width: 2; stroke: #000000" x1="604" y1="51" x2="681" y2="51"/>
  </g>
  <g>
    <ellipse style="fill: #ffffff" cx="746.4" cy="116" rx="35.4" ry="18"/>
    <ellipse style="fill: none; fill-opacity:0; stroke-width: 2; stroke: #000000" cx="746.4" cy="116" rx="35.4" ry="18"/>
    <text font-size="12.7998" style="fill: #000000;text-anchor:middle;font-family:monospace;font-style:normal;font-weight:normal" x="746.4" y="120">imię</text>
  </g>
  <g>
    <ellipse style="fill: #ffffff" cx="645.8" cy="194" rx="50.8" ry="18"/>
    <ellipse style="fill: none; fill-opacity:0; stroke-width: 2; stroke: #000000" cx="645.8" cy="194" rx="50.8" ry="18"/>
    <text font-size="12.7998" style="fill: #000000;text-anchor:middle;font-family:monospace;font-style:normal;font-weight:normal" x="645.8" y="198">nazwisko</text>
  </g>
  <line style="fill: none; fill-opacity:0; stroke-width: 2; stroke: #000000" x1="642.5" y1="61" x2="642.95" y2="99"/>
  <line style="fill: none; fill-opacity:0; stroke-width: 2; stroke: #000000" x1="710.015" y1="116.582" x2="683.9" y2="117"/>
  <line style="fill: none; fill-opacity:0; stroke-width: 2; stroke: #000000" x1="645.097" y1="175.004" x2="643.653" y2="135.996"/>
  <g>
    <ellipse style="fill: #ffffff" cx="586.4" cy="267" rx="35.4" ry="18"/>
    <ellipse style="fill: none; fill-opacity:0; stroke-width: 2; stroke: #000000" cx="586.4" cy="267" rx="35.4" ry="18"/>
    <text font-size="12.7998" style="fill: #000000;text-anchor:middle;font-family:monospace;font-style:normal;font-weight:normal" x="586.4" y="271">imie</text>
  </g>
  <g>
    <ellipse style="fill: #ffffff" cx="733.8" cy="333" rx="50.8" ry="18"/>
    <ellipse style="fill: none; fill-opacity:0; stroke-width: 2; stroke: #000000" cx="733.8" cy="333" rx="50.8" ry="18"/>
    <text font-size="12.7998" style="fill: #000000;text-anchor:middle;font-family:monospace;font-style:normal;font-weight:normal" x="733.8" y="337">nazwisko</text>
  </g>
  <g>
    <ellipse style="fill: #ffffff" cx="592.95" cy="402" rx="46.95" ry="18"/>
    <ellipse style="fill: none; fill-opacity:0; stroke-width: 2; stroke: #000000" cx="592.95" cy="402" rx="46.95" ry="18"/>
    <text font-size="12.7998" style="fill: #000000;text-anchor:middle;font-family:monospace;font-style:normal;font-weight:normal" x="592.95" y="406">nr leg.</text>
    <line style="fill: none; fill-opacity:0; stroke-width: 2; stroke: #000000" x1="566" y1="410" x2="619.9" y2="410"/>
  </g>
  <line style="fill: none; fill-opacity:0; stroke-width: 2; stroke: #000000" x1="586.129" y1="285.98" x2="585.771" y2="311.02"/>
  <line style="fill: none; fill-opacity:0; stroke-width: 2; stroke: #000000" x1="683" y1="333" x2="638.916" y2="331.644"/>
  <line style="fill: none; fill-opacity:0; stroke-width: 2; stroke: #000000" x1="590.993" y1="383.086" x2="587.466" y2="349.002"/>
  <g>
    <line style="fill: none; fill-opacity:0; stroke-width: 2; stroke: #000000" x1="532.001" y1="330.328" x2="395.551" y2="331.163"/>
    <line style="fill: none; fill-opacity:0; stroke-width: 2; stroke: #000000" x1="526.971" y1="325.358" x2="527.032" y2="335.358"/>
    <line style="fill: none; fill-opacity:0; stroke-width: 2; stroke: #000000" x1="521.971" y1="325.389" x2="522.032" y2="335.389"/>
  </g>
  <g>
    <line style="fill: none; fill-opacity:0; stroke-width: 2; stroke: #000000" x1="341.837" y1="132.955" x2="343.489" y2="300.021"/>
    <line style="fill: none; fill-opacity:0; stroke-width: 2; stroke: #000000" x1="341.936" y1="142.955" x2="346.837" y2="132.906"/>
    <line style="fill: none; fill-opacity:0; stroke-width: 2; stroke: #000000" x1="341.936" y1="142.955" x2="336.838" y2="133.005"/>
    <path style="fill: none; fill-opacity:0; stroke-width: 2; stroke: #000000" d="M 341.961 145.455 C 344.461,145.43 346.973,146.655 346.985,147.905 C 346.998,149.155 344.51,150.43 342.01,150.454 C 339.511,150.479 336.998,149.254 336.986,148.004 C 336.974,146.754 339.461,145.479 341.961,145.455"/>
  </g>
  <g>
    <ellipse style="fill: #ffffff" cx="500.25" cy="41" rx="39.25" ry="18"/>
    <ellipse style="fill: none; fill-opacity:0; stroke-width: 2; stroke: #000000" cx="500.25" cy="41" rx="39.25" ry="18"/>
    <text font-size="12.7998" style="fill: #000000;text-anchor:middle;font-family:monospace;font-style:normal;font-weight:normal" x="500.25" y="45">ocena</text>
  </g>
  <g>
    <ellipse style="fill: #ffffff" cx="500.4" cy="210" rx="35.4" ry="18"/>
    <ellipse style="fill: none; fill-opacity:0; stroke-width: 2; stroke: #000000" cx="500.4" cy="210" rx="35.4" ry="18"/>
    <text font-size="12.7998" style="fill: #000000;text-anchor:middle;font-family:monospace;font-style:normal;font-weight:normal" x="500.4" y="214">data</text>
  </g>
  <line style="fill: none; fill-opacity:0; stroke-width: 2; stroke: #000000" x1="501.184" y1="59.976" x2="502.515" y2="87.0086"/>
  <line style="fill: none; fill-opacity:0; stroke-width: 2; stroke: #000000" x1="501.118" y1="191.01" x2="502.847" y2="145.332"/>
  <g>
    <polygon style="fill: #ffffff" points="279,-38.65 337.5,-73.75 396,-38.65 337.5,-3.55 "/>
    <polygon style="fill: none; fill-opacity:0; stroke-width: 2; stroke: #000000" points="279,-38.65 337.5,-73.75 396,-38.65 337.5,-3.55 "/>
    <text font-size="12.7998" style="fill: #000000;text-anchor:end;font-family:monospace;font-style:normal;font-weight:normal" x="273" y="-44.65"/>
    <text font-size="12.7998" style="fill: #000000;text-anchor:start;font-family:monospace;font-style:normal;font-weight:normal" x="402" y="-44.65"/>
    <text font-size="12.7998" style="fill: #000000;text-anchor:middle;font-family:monospace;font-style:normal;font-weight:normal" x="337.5" y="-34.65">odbywa się</text>
  </g>
  <g>
    <line style="fill: none; fill-opacity:0; stroke-width: 2; stroke: #000000" x1="338.481" y1="-2.55588" x2="341.134" y2="95.0306"/>
    <line style="fill: none; fill-opacity:0; stroke-width: 2; stroke: #000000" x1="345.997" y1="89.8965" x2="336" y2="90.1683"/>
    <path style="fill: none; fill-opacity:0; stroke-width: 2; stroke: #000000" d="M 340.795 82.5352 C 338.296,82.6031 335.762,81.4215 335.728,80.172 C 335.695,78.9224 338.16,77.605 340.659,77.537 C 343.158,77.4691 345.691,78.6507 345.725,79.9002 C 345.759,81.1498 343.294,82.4672 340.795,82.5352"/>
  </g>
  <g>
    <rect style="fill: #ffffff" x="514" y="-57.75" width="74.2" height="36"/>
    <rect style="fill: none; fill-opacity:0; stroke-width: 2; stroke: #000000" x="514" y="-57.75" width="74.2" height="36"/>
    <text font-size="12.7998" style="fill: #000000;text-anchor:middle;font-family:monospace;font-style:normal;font-weight:normal" x="551.1" y="-35.75">termin</text>
  </g>
  <g>
    <line style="fill: none; fill-opacity:0; stroke-width: 2; stroke: #000000" x1="396.975" y1="-38.9563" x2="512.999" y2="-39.5538"/>
    <line style="fill: none; fill-opacity:0; stroke-width: 2; stroke: #000000" x1="507.973" y1="-44.528" x2="508.025" y2="-34.5281"/>
    <line style="fill: none; fill-opacity:0; stroke-width: 2; stroke: #000000" x1="502.973" y1="-44.5022" x2="503.025" y2="-34.5024"/>
  </g>
  <g>
    <ellipse style="fill: #ffffff" cx="442.65" cy="-124.75" rx="54.65" ry="18"/>
    <ellipse style="fill: none; fill-opacity:0; stroke-width: 2; stroke: #000000" cx="442.65" cy="-124.75" rx="54.65" ry="18"/>
    <text font-size="12.7998" style="fill: #000000;text-anchor:middle;font-family:monospace;font-style:normal;font-weight:normal" x="442.65" y="-120.75">dzień tyg</text>
  </g>
  <g>
    <ellipse style="fill: #ffffff" cx="557.95" cy="-133.75" rx="46.95" ry="18"/>
    <ellipse style="fill: none; fill-opacity:0; stroke-width: 2; stroke: #000000" cx="557.95" cy="-133.75" rx="46.95" ry="18"/>
    <text font-size="12.7998" style="fill: #000000;text-anchor:middle;font-family:monospace;font-style:normal;font-weight:normal" x="557.95" y="-129.75">godzina</text>
  </g>
  <g>
    <ellipse style="fill: #ffffff" cx="698.4" cy="-125.75" rx="35.4" ry="18"/>
    <ellipse style="fill: none; fill-opacity:0; stroke-width: 2; stroke: #000000" cx="698.4" cy="-125.75" rx="35.4" ry="18"/>
    <text font-size="12.7998" style="fill: #000000;text-anchor:middle;font-family:monospace;font-style:normal;font-weight:normal" x="698.4" y="-121.75">sala</text>
  </g>
  <line style="fill: none; fill-opacity:0; stroke-width: 2; stroke: #000000" x1="464.606" y1="-107.541" x2="526.9" y2="-58.7173"/>
  <line style="fill: none; fill-opacity:0; stroke-width: 2; stroke: #000000" x1="674.283" y1="-111.669" x2="583.628" y2="-58.741"/>
  <line style="fill: none; fill-opacity:0; stroke-width: 2; stroke: #000000" x1="556.569" y1="-114.794" x2="552.481" y2="-58.7061"/>
  <g>
    <ellipse style="fill: #ffffff" cx="823.05" cy="26.25" rx="70.05" ry="18"/>
    <ellipse style="fill: none; fill-opacity:0; stroke-width: 2; stroke: #000000" cx="823.05" cy="26.25" rx="70.05" ry="18"/>
    <ellipse style="fill: none; fill-opacity:0; stroke-width: 2; stroke: #000000" cx="823.05" cy="26.25" rx="62.05" ry="14"/>
    <text font-size="12.7998" style="fill: #000000;text-anchor:middle;font-family:monospace;font-style:normal;font-weight:normal" x="823.05" y="30.25">wykształcenia</text>
  </g>
  <line style="fill: none; fill-opacity:0; stroke-width: 2; stroke: #000000" x1="790.331" y1="42.7367" x2="680.632" y2="98.0125"/>
</svg>
